<svg version="1.1" id="Layer_1" xmlns="http://www.w3.org/2000/svg" xmlns:xlink="http://www.w3.org/1999/xlink" x="0px" y="0px"
	 width="100%" viewBox="0 0 528 528" enable-background="new 0 0 528 528" xml:space="preserve">
<path fill="#000000" opacity="1.000000" stroke="none" 
	d="
M340.227539,289.307312 
	C343.544098,285.101837 346.598602,281.146545 349.758698,277.277496 
	C353.019287,273.285400 354.691925,273.358765 358.025360,277.219177 
	C369.423523,290.419464 377.997192,305.484344 386.682373,320.477753 
	C387.015625,321.053131 387.201050,321.730530 387.600861,322.247955 
	C388.849396,323.863770 389.727448,326.664001 392.482513,325.174042 
	C395.216003,323.695679 394.369537,321.451172 393.013336,319.203979 
	C387.936523,310.791870 383.007294,302.290833 377.947510,293.868286 
	C372.463074,284.738831 367.610596,275.213745 360.989716,266.791107 
	C358.800415,264.006073 359.143311,261.652924 362.364166,259.811829 
	C365.129242,258.231262 367.504333,255.301849 370.680786,259.603180 
	C378.014160,269.533478 384.680023,279.901825 391.199219,290.357239 
	C397.895813,301.097168 403.993103,312.213867 410.796783,322.882446 
	C413.290863,326.793304 412.776367,329.565643 409.800873,332.385620 
	C390.563141,350.617737 373.711548,371.142120 355.133789,389.931122 
	C331.598816,413.733734 309.533722,438.647949 288.796997,464.849945 
	C285.545349,468.958618 279.335815,469.933990 276.660400,475.015747 
	C276.209839,475.871582 275.410889,476.544006 274.739868,477.340363 
	C276.049805,478.316895 276.639587,475.918182 278.454681,477.446655 
	C273.397797,480.985352 267.368378,483.099304 263.589844,488.780121 
	C266.662720,481.568848 263.456696,476.698792 258.937897,472.151855 
	C250.538177,463.699768 244.697815,453.320526 237.655502,443.843872 
	C233.004761,437.585388 227.856903,431.701538 223.955872,424.899261 
	C223.543442,424.180115 222.933136,423.574280 221.594864,423.593018 
	C219.788406,427.174194 221.126694,432.414612 216.281555,435.442657 
	C214.101532,432.000061 212.997421,428.183258 211.217926,424.887299 
	C208.486069,419.827454 205.418152,415.469421 201.448364,411.311707 
	C194.323196,403.849121 187.897720,395.730072 182.675629,386.737823 
	C179.276566,380.884796 179.192673,380.933502 173.589005,384.224792 
	C161.649368,362.969330 164.659882,330.537689 182.267593,311.082764 
	C178.837204,336.458893 183.955780,359.193726 197.642471,380.007996 
	C194.502548,366.157410 191.695663,352.367432 194.813309,337.048431 
	C208.109146,376.214050 231.705963,407.773682 255.614700,439.203827 
	C256.604767,434.844940 254.752930,431.424866 253.299026,427.801697 
	C244.073288,404.810974 229.911224,384.485260 218.351471,362.758087 
	C211.914780,350.659943 206.196503,338.148041 203.005066,324.924835 
	C200.675964,315.274567 199.718903,305.352997 192.886673,296.017883 
	C197.296295,296.934967 196.924454,300.742065 199.975739,301.234772 
	C200.304611,298.323669 196.934021,296.888672 197.258926,294.175720 
	C198.362091,292.633392 199.263748,294.486938 200.639206,294.327332 
	C201.059219,287.244202 207.345917,280.104767 200.055649,272.225525 
	C196.843033,276.250061 191.674591,278.274048 192.924026,284.594025 
	C193.238876,286.186615 191.085007,286.754944 189.948578,287.636230 
	C178.245651,296.711548 170.275787,308.574860 164.030975,321.808716 
	C162.623856,324.790680 160.491776,327.433746 158.662247,330.212311 
	C156.780197,333.070618 155.080841,335.943573 157.775696,340.066406 
	C141.096512,340.762604 125.168106,341.427490 108.704063,342.114746 
	C109.891342,338.445709 111.586334,335.981171 113.407990,333.431946 
	C120.767258,323.133575 127.703880,312.556488 134.034439,301.571777 
	C143.352554,285.403076 153.785217,269.931183 164.262650,254.499725 
	C166.522156,251.171890 170.120193,251.456345 175.126007,254.859497 
	C178.758408,257.329010 176.140182,259.419861 174.751144,261.504547 
	C162.743042,279.526337 151.136246,297.802399 140.081909,316.423584 
	C138.964615,318.305695 136.085800,320.731689 139.243225,322.818512 
	C142.613144,325.045776 145.144608,322.929291 147.016602,319.895203 
	C151.999924,311.818420 157.130493,303.830872 162.016769,295.696289 
	C169.738602,282.841125 177.737442,270.167175 186.138672,257.746033 
	C190.642578,251.087097 190.496674,250.812622 182.643738,248.110107 
	C176.023788,245.831909 169.624115,243.053375 163.429932,239.745758 
	C147.177872,231.067398 139.166870,216.302383 133.742065,199.693222 
	C130.944321,191.127319 129.130127,182.324982 129.665558,173.207489 
	C129.761337,171.576691 129.443420,169.860321 130.491302,168.431900 
	C131.923874,167.568771 133.203094,168.276794 134.293213,168.925079 
	C144.737778,175.136520 156.485992,177.842957 167.873245,181.516785 
	C179.778793,185.357864 191.579544,189.419495 201.916168,196.768967 
	C202.995987,197.536743 204.175034,198.201294 205.384369,198.743454 
	C208.542496,200.159241 210.277878,199.059265 210.186813,195.610443 
	C210.134476,193.627869 209.924362,191.579041 209.351624,189.691635 
	C204.081985,172.325974 197.657425,155.491989 186.487610,140.878021 
	C181.881531,134.851700 176.541534,129.223618 170.009659,125.777222 
	C160.638626,120.832825 150.408478,121.967171 141.207031,126.815025 
	C128.122208,133.708893 121.136757,145.255035 118.244110,159.599884 
	C117.063637,165.453934 117.716927,171.422729 117.025406,177.774506 
	C112.258659,176.248901 110.840271,172.737274 109.487640,169.241104 
	C102.400848,150.923706 106.557365,133.591949 114.205704,116.592102 
	C121.977562,99.317696 135.547577,88.687599 152.896088,81.895279 
	C160.844971,78.783119 168.406204,76.570030 177.084793,78.440636 
	C182.941010,79.702896 189.013275,78.156586 194.905853,77.076721 
	C197.514465,76.598679 199.351425,76.976227 200.697174,79.539085 
	C202.587173,83.138428 206.002472,84.449265 209.855209,84.642944 
	C213.424088,84.822350 216.682526,86.012825 219.913544,87.361534 
	C223.148468,88.711899 225.468124,90.418709 225.566757,94.614784 
	C225.657745,98.486771 228.174957,100.427940 232.128159,102.177109 
	C238.165024,104.848228 245.001694,107.592079 244.809067,116.799141 
	C244.696487,122.180405 249.277725,125.542480 254.053467,127.635803 
	C257.733917,129.249023 259.200867,131.486420 257.825958,135.472305 
	C256.473053,139.394516 258.971497,142.409637 261.197357,144.891800 
	C265.371124,149.546204 265.904541,156.227798 271.259583,160.492371 
	C273.963013,162.645279 271.373016,168.258057 272.282654,172.342697 
	C273.626556,178.376862 275.647644,181.122604 280.420959,181.598969 
	C284.592651,182.015289 287.234619,180.336441 287.676941,175.996124 
	C287.878601,174.017563 288.000031,171.980789 287.761505,170.018600 
	C287.356049,166.683334 288.282410,163.977478 291.175781,162.316650 
	C296.809082,159.083084 297.384796,153.919189 296.394348,148.426346 
	C295.730408,144.744354 296.926910,142.452484 299.745605,140.315475 
	C302.118134,138.516708 304.135559,136.245560 306.285339,134.157959 
	C309.373444,131.159164 309.985291,127.504562 308.619324,123.601997 
	C307.537506,120.511139 308.312836,118.448700 311.202393,117.058983 
	C311.649078,116.844154 312.009094,116.425812 312.466644,116.260399 
	C320.649719,113.301758 325.877777,108.271400 325.753662,98.815178 
	C325.708801,95.394539 328.871521,94.826248 331.636963,94.766762 
	C335.707306,94.679207 339.482086,93.430397 343.307831,92.276138 
	C345.829010,91.515488 348.040863,90.180603 349.122192,87.868973 
	C351.513763,82.756287 355.523621,82.339203 359.941223,84.099655 
	C364.681458,85.988670 369.830078,85.169960 374.545380,86.932358 
	C393.837524,94.142990 402.564362,109.433624 406.273010,128.480408 
	C408.787811,141.395996 407.015869,153.976746 402.686615,166.271469 
	C402.075256,168.007629 402.234314,170.893692 399.389954,170.328003 
	C397.184845,169.889420 396.895813,167.529419 396.745667,165.436783 
	C396.080383,156.165070 393.807434,147.413361 388.367279,139.676498 
	C386.143860,136.514404 383.554077,133.708725 380.593231,131.253052 
	C375.875458,127.340195 372.480438,127.622864 368.782196,132.649414 
	C361.923950,141.971008 356.996124,152.365341 352.769928,163.078568 
	C347.747711,175.809616 344.521484,189.077225 341.569641,202.406448 
	C340.529327,207.104126 342.265137,208.858078 346.424286,206.881546 
	C361.518005,199.708649 378.080811,198.087082 393.986023,194.025482 
	C398.752228,192.808380 402.764221,189.313019 407.597748,189.440643 
	C405.368500,203.194229 399.714996,215.289307 392.515350,227.063354 
	C381.742981,244.679947 366.230072,252.631653 346.220947,253.357361 
	C338.822418,253.625687 336.221130,256.661743 337.696594,263.895203 
	C338.592926,268.289429 337.692444,272.133331 335.769562,275.933075 
	C333.063538,281.280304 330.260437,286.563263 328.222687,292.240295 
	C326.237183,297.771790 325.932587,303.121185 327.625549,308.829712 
	C329.763428,316.038452 332.741211,323.036621 329.684753,331.110382 
	C328.350830,334.633972 330.079102,339.286316 330.289551,343.432526 
	C330.566193,348.882294 328.415680,353.196075 323.748413,356.066864 
	C321.209717,357.628418 319.530457,359.611542 318.685181,362.538788 
	C317.601898,366.290436 315.691345,369.485504 311.940918,371.401794 
	C308.432922,373.194305 307.932220,376.345062 308.733032,379.979065 
	C311.138092,390.892853 310.999969,401.790344 308.216095,412.630402 
	C307.600098,415.028992 307.141815,417.554596 304.542664,418.683807 
	C303.216248,418.513214 303.064972,417.418854 302.547241,416.590729 
	C300.851135,413.877655 299.280548,414.607971 298.342285,417.083038 
	C292.821533,431.646576 282.408752,442.258209 270.535614,451.686981 
	C268.148682,453.582550 267.370575,455.495300 269.594879,457.955872 
	C272.108582,460.736633 273.970062,459.050690 275.750427,457.013824 
	C282.656036,449.113312 289.298584,440.963074 296.524323,433.367401 
	C304.875336,424.588776 311.864594,414.560272 320.579285,406.221924 
	C337.983307,389.569580 352.051697,370.089661 367.902496,352.133179 
	C369.389252,350.448914 370.506439,348.296326 373.553802,348.903076 
	C375.123016,349.215546 376.807068,347.186401 376.717865,346.221069 
	C376.189972,340.508057 381.029541,338.485870 384.019135,335.461334 
	C387.410492,332.030426 388.076385,329.002563 384.563782,325.714539 
	C375.450134,317.183472 370.237610,305.782074 362.550507,296.213989 
	C361.235931,294.577728 360.080444,292.621002 357.001526,292.310547 
	C355.131500,300.195770 356.150726,307.302673 362.390503,314.338684 
	C358.443359,313.810608 358.149841,310.976471 355.962463,310.059998 
	C351.597107,313.982239 351.011658,320.606842 346.604919,324.779053 
	C344.704010,322.737183 346.586426,321.449127 346.826569,319.981445 
	C347.156464,317.964996 349.342957,316.199554 346.590881,313.828217 
	C345.154755,312.590790 347.459930,310.447540 348.674774,309.315460 
	C354.764313,303.640930 351.584320,297.182404 351.151703,290.586914 
	C346.418640,291.201935 345.849121,295.604309 342.760284,297.562347 
	C341.115662,296.948639 339.319427,296.278351 337.617065,295.643066 
	C337.086029,292.892365 339.034332,291.445587 340.227539,289.307312 
M158.952408,222.529587 
	C151.250992,213.424713 145.912933,203.215073 144.304016,191.261230 
	C147.804626,194.940292 148.535477,199.923279 150.478210,204.333252 
	C152.613098,209.179398 154.694565,214.033585 162.168213,214.227554 
	C159.550064,202.896118 150.966476,195.600983 145.921005,186.277390 
	C150.337585,185.416718 150.791321,185.333908 153.361526,186.550827 
	C165.571732,192.332001 176.447815,199.608917 183.744385,211.538208 
	C189.673965,221.232605 198.589401,227.609787 209.113098,231.718979 
	C214.250626,233.725021 214.787048,234.576492 212.445084,239.805466 
	C211.306763,242.347061 211.099289,244.515671 212.764221,246.799438 
	C217.031021,252.652344 222.759384,257.358093 225.809357,264.205841 
	C227.119431,267.147186 230.415466,268.314178 233.227020,269.841217 
	C237.119675,271.955475 241.531723,271.184235 246.089233,272.343811 
	C242.357803,275.963318 237.901611,274.878479 233.818985,275.744385 
	C233.818985,277.575104 234.196213,279.322357 233.747757,280.822845 
	C232.440033,285.198425 233.934723,287.881012 237.680573,290.366974 
	C242.276291,293.416992 241.457535,297.842407 238.465622,302.625610 
	C233.165680,292.816833 229.554001,282.143402 223.465805,273.242279 
	C220.858963,272.922760 219.463516,275.981293 217.166870,275.719727 
	C213.804764,275.336823 213.701721,277.452820 213.266174,279.566498 
	C212.391937,283.809052 214.271652,287.747162 214.629700,291.802368 
	C215.405869,300.593109 219.153549,307.194641 226.387756,312.051849 
	C227.554047,312.834900 228.692703,313.969849 228.253403,315.696320 
	C225.253128,316.483368 224.282806,311.628876 219.808197,313.429901 
	C231.098618,324.149170 245.549316,327.110840 257.808167,334.259125 
	C259.541962,331.888733 259.968536,328.960297 262.733185,327.824585 
	C263.871185,329.729218 262.817902,331.836395 264.664490,333.501434 
	C269.970795,338.286102 275.348694,342.950806 281.016357,347.313049 
	C287.680420,352.442200 294.738434,352.570465 302.224121,349.721313 
	C304.375153,348.902588 306.123901,347.590668 306.436768,345.215485 
	C306.775360,342.645081 304.926514,341.231049 302.930756,340.272705 
	C298.734650,338.257935 294.373444,336.577911 290.226440,334.472137 
	C284.365753,331.496216 282.630981,322.800720 286.815857,317.776337 
	C288.544922,315.700409 289.994110,314.716583 292.912842,317.197144 
	C299.728088,322.989319 307.904938,324.973572 316.694855,322.592651 
	C323.424194,320.769928 324.721649,318.131378 322.704895,311.528076 
	C317.592560,294.788971 313.947235,277.734253 311.759521,260.376831 
	C311.375092,257.326691 310.980408,254.156067 312.215027,251.159042 
	C314.472290,251.202164 313.948975,254.179596 316.427124,254.230026 
	C318.045532,253.811569 318.624817,251.933640 319.572998,250.436615 
	C321.570038,247.283539 323.927490,244.354874 327.423004,242.976532 
	C331.598572,241.330048 333.753754,238.975769 332.589172,234.263672 
	C330.906525,227.455170 328.012360,224.355225 322.699188,224.397903 
	C312.357758,224.480988 303.528351,220.868973 295.999878,213.874512 
	C295.053650,212.995377 294.217468,211.811981 292.294586,212.371246 
	C291.012848,214.736404 292.191620,217.426865 291.942627,219.991318 
	C291.813171,221.324097 291.810974,222.904846 290.159973,223.155869 
	C288.439270,223.417511 288.030762,221.944382 287.720581,220.593842 
	C287.013794,217.516098 286.481262,214.382401 285.528412,211.382446 
	C284.840729,209.217285 285.262207,206.208252 282.474915,205.452515 
	C280.145599,205.817947 280.514771,207.909210 279.299042,208.835938 
	C265.916840,219.036545 251.339188,222.233597 234.712067,218.308029 
	C228.194916,216.769379 220.516891,212.302719 214.272766,220.925613 
	C210.822021,213.717682 205.568069,209.509003 199.816467,205.705734 
	C182.140610,194.017502 161.825027,188.182526 142.661438,179.803024 
	C139.234329,178.304474 137.084015,180.096237 137.577850,183.982437 
	C139.567795,199.641876 144.085159,214.164246 156.158279,225.411926 
	C165.880753,234.469681 177.813568,238.858444 190.197189,242.442291 
	C191.162491,242.721664 192.557144,243.128815 193.340744,240.768875 
	C181.451736,236.091064 168.549438,233.025864 158.952408,222.529587 
M204.251694,110.617393 
	C204.052628,113.397789 206.201920,114.828362 207.912750,116.215363 
	C210.751480,118.516792 212.944778,121.106621 214.797073,124.313599 
	C218.257263,130.304443 218.487976,130.130325 224.977066,127.285774 
	C226.639923,126.556847 228.406250,126.042892 230.155777,125.536369 
	C237.508224,123.407715 238.292068,122.173256 236.583008,114.497101 
	C235.939117,111.605003 234.885086,108.873566 230.931519,110.251762 
	C229.047653,110.908455 228.254089,109.424469 227.217468,108.442390 
	C220.984253,102.537117 210.291382,103.222542 204.251694,110.617393 
M261.611450,178.295807 
	C264.286743,176.832855 263.934082,174.575775 263.211609,172.216064 
	C259.323364,159.516403 258.333038,158.878647 245.074417,161.032211 
	C242.802704,161.401215 239.959427,160.100235 238.326233,161.962982 
	C234.271240,166.587860 238.337784,171.432388 238.614578,176.182144 
	C238.767059,178.798935 240.498520,180.840347 243.222549,181.485199 
	C244.309204,181.742432 245.553879,181.586609 246.680817,181.374969 
	C251.418488,180.485229 256.138855,179.503311 261.611450,178.295807 
M277.313354,419.320679 
	C277.358093,421.956207 277.470581,424.573914 279.288696,427.259125 
	C282.172760,424.910919 282.560638,421.720612 283.543274,418.837189 
	C286.285950,410.788940 282.899750,402.250671 285.542938,394.173096 
	C286.040710,392.651917 284.567352,391.727570 283.431427,391.119843 
	C277.254272,387.814972 271.205353,384.369843 266.456848,379.044647 
	C265.011444,377.423706 262.983948,377.516937 262.612823,379.609131 
	C261.828522,384.030396 261.441650,388.612183 263.978882,393.085297 
	C267.071014,390.481079 264.245667,386.135498 267.412079,384.036957 
	C272.876404,395.155396 275.448364,406.704803 277.313354,419.320679 
M249.652817,141.797073 
	C248.358307,139.475174 247.049301,137.161194 245.773544,134.829041 
	C244.627579,132.734161 242.957993,131.675354 240.502014,131.824188 
	C235.791611,132.109650 231.375275,133.498108 227.077240,135.314957 
	C225.274597,136.076965 223.606583,137.459671 224.454865,139.500977 
	C226.354614,144.072647 228.175369,148.749512 231.680878,152.452927 
	C233.030731,153.878998 234.567520,153.734680 236.267609,153.203979 
	C239.784119,152.106262 243.423676,151.832275 247.090103,151.684174 
	C253.047318,151.443558 253.633621,150.492767 251.334778,145.127411 
	C250.942841,144.212631 250.462189,143.335861 249.652817,141.797073 
M320.492920,125.801010 
	C320.732147,126.002747 320.987488,126.189835 321.196472,126.419121 
	C321.236206,126.462730 321.127197,126.751671 321.028442,126.795288 
	C319.516724,127.463142 317.159821,126.849831 316.886963,129.868301 
	C320.933685,132.820847 326.091827,131.601685 330.587189,133.062408 
	C340.687073,136.344254 340.755554,136.134842 345.293060,126.270798 
	C345.501404,125.817825 345.655334,125.335777 345.899597,124.904045 
	C347.117218,122.751907 346.407654,121.097435 344.599854,119.711197 
	C340.178558,116.320953 335.171051,114.724808 329.654388,115.464951 
	C324.060059,116.215515 320.606934,120.072929 320.492920,125.801010 
M365.903473,216.332825 
	C370.624207,211.672394 377.691559,210.595810 382.307190,205.654190 
	C371.489197,208.163559 360.440277,209.214661 350.376190,214.559708 
	C342.310455,218.843445 340.339569,221.728363 342.527252,230.585373 
	C343.515442,234.586105 346.121002,235.644928 349.469177,233.242950 
	C350.933624,232.192337 352.198456,230.836014 353.447449,229.517609 
	C357.441803,225.301361 361.386322,221.037918 365.903473,216.332825 
M321.604492,184.939194 
	C325.281281,183.560394 324.886078,179.880524 325.560120,177.116623 
	C326.302368,174.073212 326.727722,170.479736 325.790771,167.616913 
	C324.565491,163.873138 309.111298,161.398468 306.031677,163.952530 
	C304.708984,165.049469 303.869537,166.498779 303.448334,168.134918 
	C302.994141,169.899139 302.629120,171.693527 302.350098,173.494110 
	C301.848846,176.728546 302.854004,179.046814 306.358704,179.798584 
	C311.418732,180.883987 316.186371,182.839096 321.604492,184.939194 
M268.745148,201.293854 
	C271.649506,197.007935 269.190643,188.323456 264.791901,188.650574 
	C259.167603,189.068817 253.452011,187.107483 247.742233,190.540329 
	C241.853348,194.080872 241.091843,194.721939 244.970383,200.832275 
	C246.674210,203.516541 247.882141,206.969269 251.494339,201.450989 
	C251.370224,205.998154 253.282654,206.771118 256.546600,206.076889 
	C260.655579,205.202942 264.547485,203.878845 268.745148,201.293854 
M311.457336,146.796280 
	C308.704987,154.096634 309.034851,154.599442 316.953583,155.793472 
	C319.078491,156.113876 321.184875,156.601303 323.271362,157.125107 
	C331.647095,159.227859 331.916595,159.108826 334.746277,150.629822 
	C335.522766,148.303223 336.978058,145.577423 334.704803,143.632996 
	C329.708740,139.359634 323.447174,139.123566 317.264862,139.282303 
	C312.995117,139.391953 313.336365,143.613220 311.457336,146.796280 
M279.174988,354.421478 
	C275.195984,350.518707 271.981934,345.782104 266.624146,341.611053 
	C268.191711,351.647675 283.208221,368.069305 292.399628,368.572906 
	C297.688080,368.862671 303.038696,369.500732 307.835846,366.249390 
	C310.090393,364.721344 312.698425,363.311584 311.419708,360.042145 
	C310.231873,357.005005 307.430481,356.874786 304.655884,357.368927 
	C302.048279,357.833252 299.472260,358.472443 296.869598,358.967438 
	C290.549896,360.169403 284.634064,359.579163 279.174988,354.421478 
M302.853424,201.642303 
	C306.324493,207.601425 312.439789,205.276688 317.488800,206.250656 
	C317.983307,206.346039 318.762024,205.836807 319.167847,205.389542 
	C323.282288,200.855331 321.506653,192.258789 315.749756,189.871811 
	C312.399994,188.482925 308.872009,187.347153 305.140320,187.254562 
	C303.153137,187.205246 300.903564,186.694885 300.000580,189.154190 
	C299.058716,191.719421 297.241974,194.321304 299.325409,197.156387 
	C300.310730,198.497192 301.391632,199.767776 302.853424,201.642303 
M210.791550,96.765541 
	C211.382950,96.006134 211.358429,95.211319 210.797562,94.482674 
	C205.306320,87.348747 188.658615,86.609360 182.867645,93.276855 
	C181.260422,95.127357 180.623947,97.066933 183.310501,98.655952 
	C186.736176,100.682152 190.739334,101.560509 193.818542,104.365738 
	C195.155701,105.583908 196.960602,104.446648 198.456604,103.621559 
	C202.387283,101.453667 206.348343,99.340828 210.791550,96.765541 
M346.256500,101.892487 
	C343.202240,100.872200 340.055145,101.251602 336.921722,101.145462 
	C333.122375,101.016754 332.184082,103.126442 331.754395,106.298203 
	C331.281006,109.792496 333.803406,110.093399 336.007599,110.520088 
	C340.430695,111.376366 344.709320,112.709198 348.597443,114.891815 
	C351.362335,116.443878 353.136078,115.889297 355.008881,113.671654 
	C357.099945,111.195511 356.365265,109.106689 354.381439,107.143364 
	C352.244598,105.028580 349.688385,103.499062 346.256500,101.892487 
M165.620087,92.676872 
	C171.726318,93.308395 177.417908,93.004463 180.533081,86.327988 
	C170.286545,82.068474 155.021713,85.729103 152.691513,93.031372 
	C156.762863,95.306915 160.716888,92.652336 165.620087,92.676872 
M381.210297,230.445496 
	C390.946075,224.182220 393.442413,213.403732 397.544159,203.727676 
	C398.673096,201.064499 396.264771,199.814865 393.646423,200.667297 
	C392.135895,201.159088 390.566772,201.888718 389.420776,203.774460 
	C393.513062,203.677567 393.002869,206.074310 392.132050,208.489120 
	C390.137390,214.020218 387.034363,218.905273 383.377594,223.493103 
	C381.295380,226.105453 378.824249,228.529892 377.584045,231.906952 
	C379.260132,232.261230 379.838898,231.257324 381.210297,230.445496 
M313.400177,341.939240 
	C311.134705,344.526306 310.344025,347.275604 313.454468,349.636658 
	C316.371857,351.851196 319.375763,351.404327 321.879517,348.707184 
	C323.252197,347.228485 324.131531,345.380829 324.460449,343.414032 
	C324.779633,341.505585 325.400146,339.265533 323.560364,337.840210 
	C321.612305,336.330963 319.817200,337.754364 318.132141,338.799164 
	C316.726776,339.670502 315.344147,340.578522 313.400177,341.939240 
M356.592102,101.860634 
	C357.734131,102.818474 358.847046,103.813889 360.024597,104.725838 
	C362.069244,106.309273 363.770416,105.234795 365.350067,103.886192 
	C367.409241,102.128189 366.001007,100.642807 364.847809,99.220497 
	C362.609772,96.460175 359.598816,94.678780 356.556793,93.001709 
	C354.206268,91.705879 352.359589,92.869362 351.015228,94.789024 
	C349.445068,97.031158 351.337036,98.020569 352.813934,99.090820 
	C353.886902,99.868378 354.966919,100.636215 356.592102,101.860634 
M369.582489,98.912804 
	C370.847290,99.975601 372.057617,101.417076 373.889313,99.964073 
	C374.946198,99.125679 374.929596,97.954247 374.513031,96.772430 
	C373.147491,92.898209 361.975342,87.996101 356.444366,89.779861 
	C361.160004,92.790848 365.565704,95.035408 369.582489,98.912804 
M321.416534,269.476807 
	C318.313629,271.754395 318.651093,274.766541 320.499573,277.303223 
	C322.648132,280.251709 324.114258,277.109985 325.609833,276.003296 
	C327.514130,274.594177 331.886536,274.770752 330.498169,271.084167 
	C329.046631,267.229950 325.101105,269.459839 321.416534,269.476807 
M294.630890,401.276123 
	C294.296509,398.888947 295.646301,395.884277 292.343536,394.439423 
	C289.590088,398.200806 289.484589,404.504730 292.086456,408.856567 
	C294.189423,407.006622 294.250092,404.488068 294.630890,401.276123 
M134.784760,103.187279 
	C136.824570,101.017937 140.904999,100.405113 140.483231,96.047600 
	C134.780075,97.421707 129.837051,102.159546 129.566391,106.717293 
	C131.270981,105.588753 132.753235,104.607414 134.784760,103.187279 
M255.356262,372.991272 
	C255.636703,375.855530 254.325653,378.964294 256.497162,381.914276 
	C259.249756,375.338196 259.680023,368.623444 257.581635,366.294098 
	C256.108215,367.992859 255.660248,370.049316 255.356262,372.991272 
M328.269775,247.319534 
	C327.665833,248.046234 326.704163,248.614059 327.273041,250.152084 
	C329.896393,249.667038 332.412384,249.219803 333.094086,245.885864 
	C331.093903,245.005219 329.978149,246.182480 328.269775,247.319534 
z"/>
<path fill="#000000" opacity="1.000000" stroke="none" 
	d="
M278.607239,138.256424 
	C280.407379,143.008591 284.538300,146.283401 284.856537,151.565308 
	C280.608215,149.773422 274.187866,140.259216 274.382263,136.329376 
	C274.522034,133.503845 274.418152,130.623688 274.947723,127.868774 
	C276.084412,121.956047 275.610809,116.710602 270.787689,112.373344 
	C268.936890,110.708984 269.622101,107.973221 269.134735,105.729782 
	C268.692047,103.691940 269.433350,101.355766 267.658875,99.615891 
	C265.073517,99.569855 264.486664,101.837456 263.334778,103.313850 
	C261.596466,105.541786 260.159790,108.005508 258.415192,110.227928 
	C256.900696,112.157234 255.960403,115.539215 252.329712,113.539864 
	C248.775055,111.582390 247.212296,107.049965 249.134903,103.871056 
	C254.309982,95.314301 260.351532,87.352058 266.317200,79.342667 
	C267.206329,78.148956 268.190979,77.026382 269.432465,75.501060 
	C280.160614,90.897354 292.191772,104.449066 301.041992,120.264999 
	C303.772705,125.144943 302.105957,129.806458 297.122620,132.193512 
	C294.736359,133.336548 293.733734,131.649368 292.795868,130.102249 
	C290.985046,127.115089 289.332947,124.032043 287.594604,121.000443 
	C286.847168,119.696930 286.122559,118.261650 284.264954,118.484077 
	C282.612274,118.681961 282.253204,120.141899 281.911011,121.386841 
	C280.419739,126.812492 278.509155,132.158325 278.607239,138.256424 
z"/>
<path fill="#000000" opacity="1.000000" stroke="none" 
	d="
M233.746597,263.676697 
	C225.029251,257.775421 223.398468,247.644791 218.126785,239.893600 
	C216.651077,237.723801 217.761169,235.869812 219.343796,232.510666 
	C225.640625,244.933304 238.470703,240.031311 247.858612,244.485458 
	C247.179245,238.585617 241.633606,238.441635 238.613617,235.385101 
	C244.236145,233.452850 252.034714,236.843155 255.416870,242.574249 
	C258.150787,247.206894 259.273346,252.488297 261.282623,257.413361 
	C262.019989,259.220734 262.098236,261.362213 263.756653,262.698944 
	C266.060974,263.339172 265.707336,260.054993 267.626373,260.214172 
	C271.991150,265.803619 281.300812,295.125885 280.269135,300.343140 
	C277.297943,300.426605 277.101624,297.871582 276.321686,296.048798 
	C272.391205,286.863068 267.724091,278.142395 262.086945,269.830841 
	C258.523743,264.577148 254.299820,263.722961 248.792496,264.765930 
	C243.835815,265.704712 238.876984,266.055511 233.746597,263.676697 
M236.664993,253.523376 
	C234.922211,253.362152 234.006119,253.965790 234.741730,255.812759 
	C235.947372,258.839935 243.599304,260.974304 246.340866,259.084106 
	C247.048798,258.596039 247.649475,258.011169 247.430069,257.042023 
	C247.221741,256.121918 246.500656,255.667282 245.667969,255.482361 
	C242.908737,254.869598 240.136795,254.314209 236.664993,253.523376 
z"/>
<path fill="#000000" opacity="1.000000" stroke="none" 
	d="
M260.915009,246.109100 
	C260.279816,244.432968 258.851837,243.431519 259.272919,241.745987 
	C266.010712,243.481155 268.543091,248.290115 265.460419,253.815155 
	C262.432159,252.254898 262.711212,248.752258 260.915009,246.109100 
z"/>
</svg>